<?xml version="1.0" encoding="UTF-8"?>
<svg width="650px" height="603px" viewBox="0 0 650 603" version="1.1" xmlns="http://www.w3.org/2000/svg" xmlns:xlink="http://www.w3.org/1999/xlink">
    <!-- Generator: Sketch 57.1 (83088) - https://sketch.com -->
    <title>Slice</title>
    <desc>Created with Sketch.</desc>
    <g id="Page-1" stroke="none" stroke-width="1" fill="none" fill-rule="evenodd">
        <path d="M0,118 L650,118 L650,345 C502.031454,345 391.698121,345 319,345 C246.301879,345 139.968546,345 0,345 L0,118 Z" id="down-crown" fill="#DD3C00"></path>
        <path d="M0,308 L650,308 L650,504 C502.031454,504 391.698121,504 319,504 C246.301879,504 139.968546,504 0,504 L0,308 Z" id="down-crown-copy" fill="#0500FF"></path>
        <g id="ORIGINAL-logo-Copy-2" transform="translate(34.000000, 154.000000)" fill="#FFFFFF" fill-rule="nonzero">
            <path d="M43.9695461,125 C34.6529553,125 26.2170219,123.487458 18.6614934,120.462329 C11.1059649,117.437199 4.88552998,113.013728 0,107.191781 L21.6439239,81.5068493 C24.8251993,85.5023031 27.9496191,88.4703104 31.0172767,90.4109589 C34.0849344,92.3516074 37.2661619,93.3219178 40.5610542,93.3219178 C44.7648815,93.3219178 47.9745135,92.0662222 50.1900439,89.5547945 C52.4055743,87.0433669 53.5133236,83.3333583 53.5133236,78.4246575 L53.5133236,32.8767123 L12.9522694,32.8767123 L12.9522694,2.39726027 L93.2222548,2.39726027 L93.2222548,76.0273973 C93.2222548,92.3516802 89.0468937,104.594708 80.6960469,112.756849 C72.3452,120.918991 60.1031549,125 43.9695461,125 Z M191.216398,98.9726027 L140.770717,98.9726027 L131.397365,122.260274 L96.9715959,122.260274 L149.632796,2.39726027 L182.865593,2.39726027 L235.697218,122.260274 L200.589751,122.260274 L191.216398,98.9726027 Z M181.331772,73.9726027 L165.993558,35.6164384 L150.655344,73.9726027 L181.331772,73.9726027 Z M300.458565,124.657534 C287.960699,124.657534 276.741192,122.003451 266.799707,116.695205 C256.858223,111.38696 249.047173,103.995482 243.366325,94.5205479 C237.685477,85.0456143 234.845095,74.3151284 234.845095,62.3287671 C234.845095,50.3424058 237.685477,39.6119195 243.366325,30.1369863 C249.047173,20.6620531 256.858223,13.2705745 266.799707,7.96232877 C276.741192,2.65408305 287.960699,0 300.458565,0 C311.365794,0 321.193515,1.94061986 329.94202,5.82191781 C338.690526,9.70321575 345.961904,15.2967671 351.756369,22.6027397 L330.28287,42.1232877 C322.556916,32.7625103 313.183656,28.0821918 302.162811,28.0821918 C295.686644,28.0821918 289.920669,29.5091182 284.864714,32.3630137 C279.80876,35.2169092 275.889033,39.2408416 273.105417,44.4349315 C270.321802,49.6290214 268.930015,55.5935736 268.930015,62.3287671 C268.930015,69.0639608 270.321802,75.0285124 273.105417,80.2226027 C275.889033,85.4166931 279.80876,89.440625 284.864714,92.2945205 C289.920669,95.1484161 295.686644,96.5753425 302.162811,96.5753425 C313.183656,96.5753425 322.556916,91.8950235 330.28287,82.5342466 L351.756369,102.054795 C345.961904,109.360767 338.690526,114.954318 329.94202,118.835616 C321.193515,122.716915 311.365794,124.657534 300.458565,124.657534 Z M410.212006,78.7671233 L397.600586,92.2945205 L397.600586,122.260274 L364.197365,122.260274 L364.197365,2.39726027 L397.600586,2.39726027 L397.600586,52.2260274 L443.785652,2.39726027 L480.938214,2.39726027 L432.196779,55.4794521 L483.494583,122.260274 L444.296925,122.260274 L410.212006,78.7671233 Z M529.168375,124.657534 C519.510933,124.657534 510.137674,123.458916 501.048316,121.061644 C491.958959,118.664372 484.573967,115.468057 478.893119,111.472603 L489.970717,86.4726027 C495.310714,90.011433 501.502747,92.8652857 508.546999,95.0342466 C515.59125,97.2032074 522.521781,98.2876712 529.338799,98.2876712 C542.291134,98.2876712 548.767204,95.0342787 548.767204,88.5273973 C548.767204,85.1027226 546.920956,82.5627932 543.228404,80.9075342 C539.535853,79.2522753 533.599455,77.5114244 525.419034,75.6849315 C516.443293,73.744283 508.944686,71.6609696 502.922987,69.4349315 C496.901287,67.208893 491.731794,63.6415771 487.414348,58.7328767 C483.096903,53.8241764 480.938214,47.203238 480.938214,38.869863 C480.938214,31.5638904 482.926481,24.9714906 486.903075,19.0924658 C490.879668,13.2134409 496.816066,8.56166096 504.712445,5.1369863 C512.608824,1.71231164 522.294526,0 533.769839,0 C541.60941,0 549.335248,0.884694349 556.947584,2.65410959 C564.559921,4.42352483 571.263222,7.02053082 577.057687,10.4452055 L566.661786,35.6164384 C555.30009,29.452024 544.279409,26.369863 533.599414,26.369863 C526.896013,26.369863 522.010557,27.3687115 518.942899,29.3664384 C515.875241,31.3641652 514.341435,33.9611712 514.341435,37.1575342 C514.341435,40.3538973 516.159279,42.7511336 519.795022,44.3493151 C523.430764,45.9474966 529.281951,47.6027312 537.348755,49.3150685 C546.438113,51.2557175 553.965124,53.33903 559.930015,55.5650685 C565.894905,57.791107 571.0644,61.3298844 575.438653,66.1815068 C579.812906,71.0331293 582,77.6255287 582,85.9589041 C582,93.1507213 580.011733,99.6575054 576.035139,105.479452 C572.058545,111.301399 566.093744,115.953179 558.140556,119.434932 C550.187369,122.916685 540.530071,124.657534 529.168375,124.657534 Z" id="JACKS"></path>
            <path d="M169.859417,181 L149.0003,285 L134.696906,285 L149.894263,209.822857 L100.577351,272.371429 L93.7236407,272.371429 L67.6497447,208.337143 L52.3033944,285 L38,285 L58.8591169,181 L70.9276059,181 L99.9813758,254.245714 L157.04596,181 L169.859417,181 Z M211.13067,193.925714 L204.723941,225.868571 L257.169721,225.868571 L254.636828,238.497143 L202.191048,238.497143 L195.486332,272.074286 L256.424752,272.074286 L253.891859,285 L178.05407,285 L198.913187,181 L272.516071,181 L269.983178,193.925714 L211.13067,193.925714 Z M296.504055,181 L337.328327,181 C347.757937,181 356.722301,182.758078 364.221688,186.274286 C371.721075,189.790494 377.432443,194.742825 381.355963,201.131429 C385.279483,207.520032 387.241214,215.022814 387.241214,223.64 C387.241214,235.72387 384.534522,246.420906 379.121057,255.731429 C373.707593,265.041951 366.10899,272.247593 356.325023,277.348571 C346.541055,282.44955 335.192815,285 322.279964,285 L275.644938,285 L296.504055,181 Z M322.726945,272.074286 C332.759237,272.074286 341.500113,270.04383 348.949835,265.982857 C356.399557,261.921884 362.135756,256.300988 366.158606,249.12 C370.181456,241.939012 372.192851,233.742903 372.192851,224.531429 C372.192851,214.923761 369.113679,207.420979 362.955242,202.022857 C356.796805,196.624735 347.757945,193.925714 335.83839,193.925714 L308.721538,193.925714 L293.0772,272.074286 L322.726945,272.074286 Z M417.337939,181 L432.237309,181 L411.378192,285 L396.478822,285 L417.337939,181 Z M512.991889,259 L457.268249,259 L440.729949,285 L424.63863,285 L492.877741,181 L507.628117,181 L534,285 L519.249625,285 L512.991889,259 Z M510.012016,247.114286 L497.645539,195.857143 L464.866927,247.114286 L510.012016,247.114286 Z" id="MEDIA"></path>
        </g>
    </g>
</svg>