<?xml version="1.0" encoding="UTF-8"?>
<svg width="56px" height="24px" viewBox="0 0 56 24" version="1.1" xmlns="http://www.w3.org/2000/svg" xmlns:xlink="http://www.w3.org/1999/xlink">
    <!-- Generator: Sketch 57.1 (83088) - https://sketch.com -->
    <title>type lockup Feb 26th</title>
    <desc>Created with Sketch.</desc>
    <g id="Page-1" stroke="none" stroke-width="1" fill="none" fill-rule="evenodd">
        <g id="type-lockup-Feb-26th" transform="translate(-12.000000, -3.000000)" fill="#222244" fill-rule="nonzero">
            <path d="M16.568,15.256 C15.693329,15.256 14.9013369,15.1146681 14.192,14.832 C13.4826631,14.5493319 12.898669,14.1360027 12.44,13.592 L14.472,11.192 C14.7706682,11.5653352 15.0639986,11.8426658 15.352,12.024 C15.6400014,12.2053342 15.9386651,12.296 16.248,12.296 C16.6426686,12.296 16.943999,12.1786678 17.152,11.944 C17.360001,11.7093322 17.464,11.362669 17.464,10.904 L17.464,6.648 L13.656,6.648 L13.656,3.8 L21.192,3.8 L21.192,10.68 C21.192,12.205341 20.8000039,13.3493295 20.016,14.112 C19.2319961,14.8746705 18.0826742,15.256 16.568,15.256 Z M30.392,12.824 L25.656,12.824 L24.776,15 L21.544,15 L26.488,3.8 L29.608,3.8 L34.568,15 L31.272,15 L30.392,12.824 Z M29.464,10.488 L28.024,6.904 L26.584,10.488 L29.464,10.488 Z M40.648,15.224 C39.4746608,15.224 38.421338,14.9760025 37.488,14.48 C36.554662,13.9839975 35.821336,13.2933378 35.288,12.408 C34.754664,11.5226622 34.488,10.5200056 34.488,9.4 C34.488,8.2799944 34.754664,7.27733776 35.288,6.392 C35.821336,5.50666224 36.554662,4.81600248 37.488,4.32 C38.421338,3.82399752 39.4746608,3.576 40.648,3.576 C41.6720051,3.576 42.5946626,3.75733152 43.416,4.12 C44.2373374,4.48266848 44.9199973,5.00532992 45.464,5.688 L43.448,7.512 C42.722663,6.63732896 41.8426718,6.2 40.808,6.2 C40.199997,6.2 39.658669,6.333332 39.184,6.6 C38.709331,6.866668 38.3413346,7.24266424 38.08,7.728 C37.8186654,8.21333576 37.688,8.77066352 37.688,9.4 C37.688,10.0293365 37.8186654,10.5866642 38.08,11.072 C38.3413346,11.5573358 38.709331,11.933332 39.184,12.2 C39.658669,12.466668 40.199997,12.6 40.808,12.6 C41.8426718,12.6 42.722663,12.162671 43.448,11.288 L45.464,13.112 C44.9199973,13.7946701 44.2373374,14.3173315 43.416,14.68 C42.5946626,15.0426685 41.6720051,15.224 40.648,15.224 Z M50.952,10.936 L49.768,12.2 L49.768,15 L46.632,15 L46.632,3.8 L49.768,3.8 L49.768,8.456 L54.104,3.8 L57.592,3.8 L53.016,8.76 L57.832,15 L54.152,15 L50.952,10.936 Z M62.12,15.224 C61.2133288,15.224 60.3333376,15.1120011 59.48,14.888 C58.6266624,14.6639989 57.933336,14.3653352 57.4,13.992 L58.44,11.656 C58.9413358,11.9866683 59.5226634,12.2533323 60.184,12.456 C60.8453366,12.6586677 61.4959968,12.76 62.136,12.76 C63.3520061,12.76 63.96,12.456003 63.96,11.848 C63.96,11.5279984 63.7866684,11.2906674 63.44,11.136 C63.0933316,10.9813326 62.5360038,10.8186675 61.768,10.648 C60.9253291,10.4666658 60.2213362,10.272001 59.656,10.064 C59.0906638,9.85599896 58.6053354,9.52266896 58.2,9.064 C57.7946646,8.60533104 57.592,7.98667056 57.592,7.208 C57.592,6.52532992 57.7786648,5.90933608 58.152,5.36 C58.5253352,4.81066392 59.082663,4.3760016 59.824,4.056 C60.565337,3.7359984 61.4746613,3.576 62.552,3.576 C63.2880037,3.576 64.0133298,3.65866584 64.728,3.824 C65.4426702,3.98933416 66.0719973,4.2319984 66.616,4.552 L65.64,6.904 C64.573328,6.32799712 63.5386717,6.04 62.536,6.04 C61.9066635,6.04 61.4480014,6.1333324 61.16,6.32 C60.8719986,6.5066676 60.728,6.74933184 60.728,7.048 C60.728,7.34666816 60.898665,7.57066592 61.24,7.72 C61.581335,7.86933408 62.1306629,8.0239992 62.888,8.184 C63.7413376,8.36533424 64.4479972,8.55999896 65.008,8.768 C65.5680028,8.97600104 66.0533313,9.3066644 66.464,9.76 C66.8746687,10.2133356 67.08,10.8293294 67.08,11.608 C67.08,12.2800034 66.8933352,12.8879973 66.52,13.432 C66.1466648,13.9760027 65.5866704,14.410665 64.84,14.736 C64.0933296,15.061335 63.186672,15.224 62.12,15.224 Z" id="JACKS"></path>
            <path d="M28.192,17.2 L26.232,27 L24.888,27 L26.316,19.916 L21.682,25.81 L21.038,25.81 L18.588,19.776 L17.146,27 L15.802,27 L17.762,17.2 L18.896,17.2 L21.626,24.102 L26.988,17.2 L28.192,17.2 Z M32.07,18.418 L31.468,21.428 L36.396,21.428 L36.158,22.618 L31.23,22.618 L30.6,25.782 L36.326,25.782 L36.088,27 L28.962,27 L30.922,17.2 L37.838,17.2 L37.6,18.418 L32.07,18.418 Z M40.092,17.2 L43.928,17.2 C44.9080049,17.2 45.7503298,17.365665 46.455,17.697 C47.1596702,18.028335 47.6963315,18.494997 48.065,19.097 C48.4336685,19.699003 48.618,20.4059959 48.618,21.218 C48.618,22.3566724 48.3636692,23.3646623 47.855,24.242 C47.3463308,25.1193377 46.6323379,25.7983309 45.713,26.279 C44.7936621,26.7596691 43.7273394,27 42.514,27 L38.132,27 L40.092,17.2 Z M42.556,25.782 C43.4986714,25.782 44.3199965,25.5906686 45.02,25.208 C45.7200035,24.8253314 46.2589981,24.29567 46.637,23.619 C47.0150019,22.94233 47.204,22.1700043 47.204,21.302 C47.204,20.3966621 46.9146696,19.6896692 46.336,19.181 C45.7573304,18.6723308 44.9080056,18.418 43.788,18.418 L41.24,18.418 L39.77,25.782 L42.556,25.782 Z M51.446,17.2 L52.846,17.2 L50.886,27 L49.486,27 L51.446,17.2 Z M60.434,24.55 L55.198,24.55 L53.644,27 L52.132,27 L58.544,17.2 L59.93,17.2 L62.408,27 L61.022,27 L60.434,24.55 Z M60.154,23.43 L58.992,18.6 L55.912,23.43 L60.154,23.43 Z" id="MEDIA"></path>
        </g>
    </g>
</svg>