<?xml version="1.0" encoding="UTF-8"?>
<svg width="512px" height="512px" viewBox="0 0 512 512" version="1.1" xmlns="http://www.w3.org/2000/svg" xmlns:xlink="http://www.w3.org/1999/xlink">
    <!-- Generator: Sketch 57.1 (83088) - https://sketch.com -->
    <title>Slice</title>
    <desc>Created with Sketch.</desc>
    <g id="Page-1" stroke="none" stroke-width="1" fill="none" fill-rule="evenodd">
        <path d="M-32,42 L618,42 L618,269 C470.031454,269 359.698121,269 287,269 C214.301879,269 107.968546,269 -32,269 L-32,42 Z" id="down-crown" fill="#DD3C00"></path>
        <path d="M-32,256 L618,256 L618,452 C470.031454,452 359.698121,452 287,452 C214.301879,452 107.968546,452 -32,452 L-32,256 Z" id="down-crown-copy" fill="#0500FF"></path>
        <g id="ORIGINAL-logo-Copy-2" transform="translate(13.000000, 137.000000)" fill="#FFFFFF" fill-rule="nonzero">
            <path d="M36.7168375,104 C28.9370039,104 21.8925647,102.741565 15.5833089,100.224658 C9.2740532,97.7077498 4.07966936,94.0274213 0,89.1835616 L18.0737921,67.8136986 C20.7303211,71.1379162 23.3393726,73.6072982 25.9010249,75.2219178 C28.4626772,76.8365374 31.1191662,77.6438356 33.870571,77.6438356 C37.3809835,77.6438356 40.0611917,76.5990968 41.9112738,74.509589 C43.7613559,72.4200812 44.6863836,69.3333541 44.6863836,65.2493151 L44.6863836,27.3534247 L10.8158126,27.3534247 L10.8158126,1.99452055 L77.845388,1.99452055 L77.845388,63.2547945 C77.845388,76.8365979 74.3587463,87.0227969 67.3853587,93.8136986 C60.4119712,100.6046 50.1892325,104 36.7168375,104 Z M159.675549,82.3452055 L117.550805,82.3452055 L109.723572,101.720548 L80.9762811,101.720548 L124.951098,1.99452055 L152.702196,1.99452055 L196.819327,101.720548 L167.502782,101.720548 L159.675549,82.3452055 Z M151.421376,61.5452055 L138.613177,29.6328767 L125.804978,61.5452055 L151.421376,61.5452055 Z M250.898389,103.715068 C240.462027,103.715068 231.09316,101.506872 222.791508,97.090411 C214.489856,92.6739503 207.967227,86.5242407 203.223426,78.6410959 C198.479625,70.7579511 196.10776,61.8301868 196.10776,51.8575342 C196.10776,41.8848816 198.479625,32.957117 203.223426,25.0739726 C207.967227,17.1908282 214.489856,11.041118 222.791508,6.62465753 C231.09316,2.2081971 240.462027,0 250.898389,0 C260.006488,0 268.213141,1.61459573 275.518594,4.84383562 C282.824048,8.07307551 288.896023,12.7269102 293.7347,18.8054795 L275.803221,35.0465753 C269.351651,27.2584085 261.524497,23.3643836 252.321523,23.3643836 C246.91359,23.3643836 242.098703,24.5515863 237.87672,26.9260274 C233.654738,29.3004685 230.381563,32.6483802 228.057101,36.969863 C225.732639,41.2913458 224.570425,46.2538533 224.570425,51.8575342 C224.570425,57.4612154 225.732639,62.4237223 228.057101,66.7452055 C230.381563,71.0666886 233.654738,74.4146 237.87672,76.7890411 C242.098703,79.1634822 246.91359,80.3506849 252.321523,80.3506849 C261.524497,80.3506849 269.351651,76.4566596 275.803221,68.6684932 L293.7347,84.909589 C288.896023,90.9881584 282.824048,95.6419928 275.518594,98.8712329 C268.213141,102.100473 260.006488,103.715068 250.898389,103.715068 Z M342.54817,65.5342466 L332.016984,76.7890411 L332.016984,101.720548 L304.123572,101.720548 L304.123572,1.99452055 L332.016984,1.99452055 L332.016984,43.4520548 L370.583895,1.99452055 L401.608199,1.99452055 L360.906589,46.1589041 L403.742899,101.720548 L371.010835,101.720548 L342.54817,65.5342466 Z M441.88287,103.715068 C433.818408,103.715068 425.991253,102.717818 418.401171,100.723288 C410.811089,98.7287573 404.64424,96.069423 399.900439,92.7452055 L409.150805,71.9452055 C413.609978,74.8895123 418.780644,77.2639177 424.662958,79.0684932 C430.545271,80.8730686 436.332622,81.7753425 442.025183,81.7753425 C452.84105,81.7753425 458.248902,79.0685199 458.248902,73.6547945 C458.248902,70.8054652 456.70719,68.692244 453.623719,67.3150685 C450.540248,65.937893 445.58305,64.4895051 438.751977,62.969863 C431.256771,61.3552434 424.995047,59.6219267 419.966618,57.769863 C414.938188,55.917799 410.621395,52.9497921 407.016105,48.8657534 C403.410816,44.7817147 401.608199,39.273094 401.608199,32.339726 C401.608199,26.2611568 403.268505,20.7762802 406.589165,15.8849315 C409.909826,10.9935828 414.867024,7.12330192 421.460908,4.2739726 C428.054791,1.42464329 436.142851,0 445.725329,0 C452.271775,0 458.723248,0.736065699 465.079941,2.20821918 C471.436635,3.68037266 477.034237,5.84108164 481.872914,8.69041096 L473.191801,29.6328767 C463.704199,24.5040839 454.501362,21.939726 445.583016,21.939726 C439.985331,21.939726 435.905723,22.7707679 433.34407,24.4328767 C430.782418,26.0949855 429.501611,28.2556945 429.501611,30.9150685 C429.501611,33.5744425 431.019605,35.5689431 434.055637,36.8986301 C437.091669,38.2283172 441.977712,39.6054723 448.713909,41.030137 C456.303991,42.6447569 462.589433,44.3780729 467.570425,46.230137 C472.551416,48.082201 476.86821,51.0264638 480.520937,55.0630137 C484.173664,59.0995636 486,64.5844399 486,71.5178082 C486,77.5014001 484.339694,82.9150445 481.019034,87.7589041 C477.698373,92.6027638 472.717456,96.4730445 466.076135,99.369863 C459.434813,102.266682 451.370472,103.715068 441.88287,103.715068 Z" id="JACKS"></path>
            <path d="M142.060078,151 L124.649444,238 L112.710724,238 L125.395614,175.111429 L84.2319015,227.435714 L78.5112646,227.435714 L56.7479724,173.868571 L43.9387203,238 L32,238 L49.4106338,151 L59.4839291,151 L83.7344548,212.272857 L131.364974,151 L142.060078,151 Z M176.508261,161.812857 L171.160709,188.534286 L214.936017,188.534286 L212.821868,199.098571 L169.046561,199.098571 L163.450285,227.187143 L214.314208,227.187143 L212.20006,238 L148.89997,238 L166.310604,151 L227.745269,151 L225.63112,161.812857 L176.508261,161.812857 Z M247.767498,151 L281.842595,151 C290.547956,151 298.030308,152.470699 304.289877,155.412143 C310.549446,158.353586 315.316595,162.496402 318.591469,167.840714 C321.866343,173.185027 323.503755,179.461392 323.503755,186.67 C323.503755,196.778622 321.24454,205.727104 316.726044,213.515714 C312.207547,221.304324 305.865165,227.332121 297.698708,231.599286 C289.532251,235.86645 280.060132,238 269.282067,238 L230.356864,238 L247.767498,151 Z M269.655152,227.187143 C278.02888,227.187143 285.324691,225.488589 291.542806,222.091429 C297.76092,218.694269 302.548797,213.992172 305.906579,207.985 C309.264361,201.977828 310.943226,195.121467 310.943226,187.415714 C310.943226,179.378531 308.373111,173.102165 303.232803,168.586429 C298.092494,164.070692 290.547962,161.812857 280.598979,161.812857 L257.965155,161.812857 L244.907179,227.187143 L269.655152,227.187143 Z M348.624812,151 L361.060979,151 L343.650345,238 L331.214178,238 L348.624812,151 Z M428.465005,216.25 L381.95374,216.25 L368.149594,238 L354.718534,238 L411.676179,151 L423.987984,151 L446,238 L433.688195,238 L428.465005,216.25 Z M425.977771,206.307143 L415.655752,163.428571 L388.296185,206.307143 L425.977771,206.307143 Z" id="MEDIA"></path>
        </g>
    </g>
</svg>